HIERARCHY
ROOT Hips
{
 OFFSET 0.000000 0.000000 0.000000
 CHANNELS 6 Xposition Yposition Zposition Yrotation Xrotation Zrotation
 JOINT Chest
 {
  OFFSET 0.000000 9.585900 0.002600
  CHANNELS 3 Yrotation Xrotation Zrotation
  JOINT Chest2
  {
   OFFSET 0.000000 9.601200 -0.005300
   CHANNELS 3 Yrotation Xrotation Zrotation
   JOINT Chest3
   {
    OFFSET 0.000000 9.561800 0.000000
    CHANNELS 3 Yrotation Xrotation Zrotation
    JOINT Chest4
    {
     OFFSET 0.000000 9.552100 0.000000
     CHANNELS 3 Yrotation Xrotation Zrotation
     JOINT Neck
     {
      OFFSET 0.000000 14.453000 0.000000
      CHANNELS 3 Yrotation Xrotation Zrotation
      JOINT Head
      {
       OFFSET 0.000000 8.936500 -0.011300
       CHANNELS 3 Yrotation Xrotation Zrotation
       End Site
       {
        OFFSET 0.000000 17.073600 -0.006000
       }
      }
     }
     JOINT RightCollar
     {
      OFFSET -2.921100 9.558500 0.000000
      CHANNELS 3 Yrotation Xrotation Zrotation
      JOINT RightShoulder
      {
       OFFSET -13.519700 0.000000 0.000000
       CHANNELS 3 Yrotation Xrotation Zrotation
       JOINT RightElbow
       {
        OFFSET 0.000000 -29.696600 0.000000
        CHANNELS 3 Yrotation Xrotation Zrotation
        JOINT RightWrist
        {
         OFFSET 0.000000 -24.004700 0.000000
         CHANNELS 3 Yrotation Xrotation Zrotation
         End Site
         {
          OFFSET 0.000000 -17.728500 0.000000
         }
        }
       }
      }
     }
     JOINT LeftCollar
     {
      OFFSET 2.921100 9.558500 0.000000
      CHANNELS 3 Yrotation Xrotation Zrotation
      JOINT LeftShoulder
      {
       OFFSET 13.519700 0.000000 0.000000
       CHANNELS 3 Yrotation Xrotation Zrotation
       JOINT LeftElbow
       {
        OFFSET 0.000000 -29.696600 0.000000
        CHANNELS 3 Yrotation Xrotation Zrotation
        JOINT LeftWrist
        {
         OFFSET 0.000000 -24.004700 0.000000
         CHANNELS 3 Yrotation Xrotation Zrotation
         End Site
         {
          OFFSET 0.000000 -17.728500 0.000000
         }
        }
       }
      }
     }
    }
   }
  }
 }
 JOINT RightHip
 {
  OFFSET -7.771700 -0.012900 -0.001300
  CHANNELS 3 Yrotation Xrotation Zrotation
  JOINT RightKnee
  {
   OFFSET 0.000000 -40.869800 0.001200
   CHANNELS 3 Yrotation Xrotation Zrotation
   JOINT RightAnkle
   {
    OFFSET 0.000000 -39.717900 0.002100
    CHANNELS 3 Yrotation Xrotation Zrotation
    JOINT RightToe
    {
     OFFSET 0.000000 -4.965400 11.033500
     CHANNELS 3 Yrotation Xrotation Zrotation
     End Site
     {
      OFFSET 0.000000 -1.423100 5.872300
     }
    }
   }
  }
 }
 JOINT LeftHip
 {
  OFFSET 7.771700 -0.012900 -0.001300
  CHANNELS 3 Yrotation Xrotation Zrotation
  JOINT LeftKnee
  {
   OFFSET 0.000000 -40.869800 0.001200
   CHANNELS 3 Yrotation Xrotation Zrotation
   JOINT LeftAnkle
   {
    OFFSET 0.000000 -39.717900 0.002100
    CHANNELS 3 Yrotation Xrotation Zrotation
    JOINT LeftToe
    {
     OFFSET 0.000000 -4.965400 11.033500
     CHANNELS 3 Yrotation Xrotation Zrotation
     End Site
     {
      OFFSET 0.000000 -1.423100 5.872300
     }
    }
   }
  }
 }
}
MOTION
Frames: 16
Frame Time: 0.008333
0.000000 85.388000 0.000000 0.000000 -5.767877 0.000000 0.000000 11.653817 0.000000 0.000000 -5.885947 0.000000 0.000000 -0.000000 0.000000 0.000000 -0.000000 0.000000 0.000000 12.528835 0.000000 0.000000 0.711642 0.000000 0.000000 -0.000000 0.000000 0.000000 0.000000 -90.000000 0.000000 -2.309062 0.000000 0.000000 2.309062 0.000000 0.000000 -0.000000 0.000000 0.000000 -0.000000 90.000000 0.000000 -2.309062 0.000000 0.000000 2.309062 0.000000 0.000000 8.520406 0.000000 0.000000 1.905762 0.000000 -0.000000 -4.658285 0.000000 0.000000 -0.000000 0.000000 0.000000 8.520406 0.000000 0.000000 1.905762 0.000000 -0.000000 -4.658285 0.000000 0.000000 -0.000000 0.000000
-79.417204 43.690122 18.226303 177.420165 -22.849699 -0.488577 0.421945 17.008021 2.235387 -0.007963 1.767105 0.283829 -0.004687 3.024362 0.478101 0.232601 15.025527 2.420140 -0.016809 17.833255 -4.207263 0.944289 -6.862041 -4.472517 7.605399 -1.713800 -6.403762 1.704247 -11.292804 -5.724444 -139.113986 -62.401934 167.710986 -4.325904 8.761320 -34.529121 -13.903470 -3.930587 -1.045722 0.053361 -10.575042 4.936177 145.051478 -64.908426 -176.340832 11.299613 7.185013 15.633590 -1.562871 -69.824678 7.779587 -138.297246 65.703514 -137.089630 -7.631091 -23.065199 6.653813 -0.008605 -0.826428 0.082759 0.803440 -56.419801 -3.165871 176.037512 60.709832 176.181686 -1.933119 -39.640250 2.200163 0.034457 0.107830 -0.019283
-79.421324 43.690369 18.227626 177.418918 -22.882134 -0.493088 0.420203 16.990653 2.236057 -0.005131 1.767066 0.284082 -0.003642 3.024523 0.478291 0.238120 15.025745 2.421626 -0.018609 17.852978 -4.196732 0.939933 -6.840977 -4.460906 7.599430 -1.757673 -6.427143 1.729455 -11.309895 -5.746694 -139.128964 -62.408623 167.705350 -4.330979 8.786659 -34.464301 -13.916648 -3.918630 -1.038250 -0.008347 -10.647946 4.974521 145.031991 -64.913545 -176.291353 11.306475 7.217929 15.628321 -1.515471 -69.789831 7.730296 -138.289595 65.711448 -137.070481 -7.611635 -23.037550 6.627813 -0.017139 -0.830993 0.093696 0.790763 -56.389633 -3.156118 176.035139 60.708219 176.178724 -1.931660 -39.639142 2.201650 0.038250 0.109150 -0.017278
-79.423461 43.690891 18.228176 177.429532 -22.925644 -0.516600 0.413099 16.931929 2.249381 -0.004629 1.817246 0.287397 -0.002674 3.025084 0.478572 0.243241 15.026838 2.423273 -0.020021 17.871523 -4.186351 0.935981 -6.821134 -4.449524 7.592446 -1.780620 -6.440356 1.756777 -11.344510 -5.777975 -139.038432 -62.437087 167.583504 -4.299003 8.781455 -34.387191 -13.932257 -3.903614 -1.032271 -0.046134 -10.701845 4.997139 145.076068 -64.910146 -176.327179 11.350988 7.257192 15.657705 -1.532503 -69.743970 7.739240 -138.295863 65.716765 -137.065978 -7.593154 -23.003835 6.594031 -0.022968 -0.847374 0.109605 0.747125 -56.350461 -3.119151 176.035748 60.703226 176.181257 -1.928674 -39.640565 2.199937 0.035186 0.111524 -0.014246
-79.426928 43.694462 18.220867 177.412143 -23.023494 -0.519829 0.429842 16.974095 2.257565 -0.003218 1.846022 0.288110 -0.002058 3.012032 0.478167 0.248093 15.014236 2.422792 -0.020613 17.888797 -4.175388 0.932779 -6.802706 -4.437606 7.585360 -1.765141 -6.440475 1.786423 -11.410678 -5.819388 -139.089917 -62.442527 167.618148 -4.331940 8.809735 -34.349747 -13.956369 -3.919071 -1.011008 -0.062266 -10.721296 5.003766 145.067070 -64.930585 -176.295471 11.304354 7.237622 15.558115 -1.495363 -69.640920 7.716941 -138.300062 65.718731 -137.061741 -7.587228 -22.987092 6.590849 -0.024010 -0.813739 0.075695 0.740438 -56.240897 -3.096162 176.036337 60.699205 176.181324 -1.926729 -39.652037 2.198381 0.035478 0.108739 -0.010113
-79.432208 43.695445 18.218608 177.418919 -23.089898 -0.522012 0.419300 16.982980 2.254455 -0.001033 1.876477 0.288881 -0.001704 3.025905 0.478598 0.252396 14.973713 2.420613 -0.021639 17.914283 -4.166181 0.930783 -6.796195 -4.424353 7.581791 -1.798853 -6.451827 1.819519 -11.419543 -5.844488 -139.137914 -62.450298 167.645690 -4.356423 8.834025 -34.313276 -13.992955 -3.975131 -0.980427 -0.056340 -10.697835 5.003124 144.971585 -64.972230 -176.165284 11.211720 7.188659 15.423586 -1.463773 -69.569845 7.673259 -138.308750 65.715153 -137.062744 -7.584633 -22.988892 6.588314 -0.019240 -0.812132 0.078302 0.735770 -56.172282 -3.102665 176.020859 60.697394 176.171402 -1.926838 -39.656825 2.192769 0.034857 0.111360 -0.004806
-79.437036 43.694123 18.220698 177.431590 -23.129562 -0.528501 0.402512 16.963890 2.251039 -0.000113 1.876966 0.291305 -0.000410 3.026885 0.478231 0.254587 14.976184 2.418188 -0.022189 17.959448 -4.159821 0.930191 -6.798475 -4.417102 7.582308 -1.828013 -6.456709 1.849698 -11.424028 -5.872528 -139.151389 -62.463763 167.628385 -4.354736 8.849406 -34.266396 -14.009964 -3.994656 -0.970576 -0.053640 -10.666849 5.004202 145.213272 -64.911319 -176.431966 11.253161 7.214672 15.404006 -1.470777 -69.528380 7.665590 -138.313449 65.713205 -137.067742 -7.589467 -22.993610 6.587500 -0.008467 -0.788698 0.067127 0.731321 -56.137730 -3.106720 176.014347 60.694923 176.169789 -1.927428 -39.657324 2.195346 0.035231 0.116094 -0.002625
-79.440991 43.696628 18.212796 177.425499 -23.236132 -0.528275 0.403320 17.010481 2.246853 -0.002494 1.834211 0.288254 0.000548 3.028626 0.478196 0.258295 15.020770 2.419305 -0.014264 17.976335 -4.145124 0.929235 -6.771482 -4.414122 7.585999 -1.835317 -6.449871 1.872342 -11.442973 -5.907638 -139.175970 -62.477797 167.623924 -4.350004 8.867566 -34.219297 -14.018155 -3.978784 -0.968828 -0.085961 -10.732511 5.042737 145.280662 -64.915608 -176.476870 11.260734 7.217467 15.367978 -1.455885 -69.415733 7.649893 -138.342436 65.717487 -137.087889 -7.623634 -22.998731 6.587340 0.001149 -0.776412 0.059508 0.740366 -56.020308 -3.103752 176.008527 60.690997 176.167471 -1.932415 -39.669140 2.200844 0.032972 0.115319 0.002791
-79.444040 43.696407 18.210557 177.417646 -23.308665 -0.533111 0.409925 17.023005 2.249699 -0.002512 1.834628 0.287923 0.000465 3.073070 0.481583 0.256808 14.978879 2.411807 -0.008135 17.954064 -4.123484 0.935298 -6.725353 -4.404966 7.588077 -1.810474 -6.436470 1.889764 -11.488203 -5.945612 -139.212497 -62.495977 167.628908 -4.339900 8.887590 -34.166585 -14.020136 -3.934280 -0.971729 -0.128069 -10.820871 5.085116 145.300692 -64.931985 -176.471578 11.248614 7.209614 15.328853 -1.489601 -69.336656 7.682043 -138.330714 65.724843 -137.086699 -7.623311 -22.996082 6.586867 -0.002185 -0.766094 0.047988 0.741342 -55.947123 -3.086777 176.006894 60.684351 176.169076 -1.943761 -39.670621 2.208633 0.034594 0.110445 0.003107
-79.447291 43.694947 18.210836 177.416995 -23.368234 -0.540118 0.412680 17.023055 2.253473 -0.002915 1.820444 0.286494 -0.001996 3.088800 0.481580 0.258072 14.980586 2.409889 -0.006801 17.999269 -4.113693 0.935313 -6.745915 -4.382610 7.587494 -1.785454 -6.423810 1.899311 -11.495000 -5.962224 -139.321177 -62.502934 167.711545 -4.320653 8.910833 -34.103997 -14.032523 -3.925153 -0.967145 -0.148488 -10.850289 5.111216 145.330918 -64.934882 -176.496205 11.236229 7.204676 15.296186 -1.507930 -69.276192 7.699357 -138.302995 65.721758 -137.063879 -7.623993 -22.984813 6.586145 0.015592 -0.760986 0.044531 0.732857 -55.892015 -3.066643 176.011232 60.677799 176.173211 -1.950788 -39.667491 2.206238 0.032931 0.106152 0.011756
-79.451787 43.692962 18.212441 177.411075 -23.423377 -0.538729 0.417420 17.018732 2.250438 -0.002989 1.821290 0.286444 0.000104 3.031541 0.476903 0.256348 15.042118 2.413846 -0.002710 18.006114 -4.098796 0.929254 -6.762368 -4.343539 7.587137 -1.796733 -6.413843 1.911906 -11.465882 -5.975989 -139.342775 -62.515361 167.711637 -4.308417 8.923623 -34.069818 -14.053699 -3.966548 -0.963514 -0.155435 -10.828812 5.135444 145.334182 -64.940096 -176.501860 11.226173 7.203045 15.266790 -1.504125 -69.224460 7.687021 -138.282313 65.719275 -137.052244 -7.587191 -22.963246 6.584245 0.018416 -0.767240 0.034887 0.739523 -55.840269 -3.062133 176.013420 60.674065 176.176101 -1.954122 -39.667226 2.204129 0.034848 0.108861 0.016404
-79.460981 43.689175 18.218638 177.402212 -23.452399 -0.510523 0.414709 16.988531 2.219901 -0.003044 1.822543 0.286471 0.001077 3.061383 0.478725 0.254582 15.018667 2.411148 -0.002883 17.968741 -4.070948 0.927476 -6.719375 -4.329284 7.581397 -1.841234 -6.400738 1.909786 -11.479984 -6.009534 -139.205375 -62.568659 167.571356 -4.293100 8.937699 -34.035382 -14.062148 -3.948456 -0.968014 -0.171603 -10.865315 5.160764 145.278702 -64.965972 -176.434046 11.206362 7.191283 15.214057 -1.400254 -69.203990 7.555022 -138.292553 65.725858 -137.063930 -7.523876 -22.941890 6.588237 -0.017315 -0.771575 0.010906 0.791501 -55.817125 -3.111819 175.992285 60.676439 176.156921 -1.966733 -39.660130 2.208046 0.037735 0.112096 0.016808
-79.466743 43.686259 18.224239 177.400023 -23.491699 -0.506159 0.414005 16.998189 2.214065 -0.003118 1.823257 0.286491 -0.000673 3.019687 0.476815 0.255753 15.064020 2.412803 -0.008097 17.949167 -4.056255 0.922846 -6.712785 -4.312116 7.581353 -1.882943 -6.392196 1.887032 -11.485340 -6.025995 -139.186184 -62.594555 167.562822 -4.261613 8.974368 -33.969000 -14.064352 -3.934347 -0.970941 -0.192442 -10.919226 5.181267 145.232004 -64.991022 -176.379543 11.204582 7.190631 15.169727 -1.371282 -69.171604 7.509162 -138.276542 65.727553 -137.052598 -7.479742 -22.901832 6.585281 -0.034444 -0.774269 -0.001667 0.808123 -55.784012 -3.115961 175.982697 60.676064 176.148033 -1.980603 -39.659603 2.212076 0.037169 0.118114 0.020141
-79.472729 43.685615 18.226123 177.403810 -23.560029 -0.501629 0.407950 17.037145 2.206267 -0.003451 1.824081 0.286440 -0.001667 3.006029 0.476725 0.253842 15.081974 2.412027 -0.012918 17.938720 -4.044408 0.912849 -6.717573 -4.292227 7.583719 -1.885687 -6.385462 1.875636 -11.484881 -6.031310 -139.295602 -62.601790 167.646866 -4.259578 9.023718 -33.886083 -14.069742 -3.958176 -0.971992 -0.207231 -10.930497 5.194683 145.189275 -64.997748 -176.358051 11.216315 7.212313 15.193509 -1.344044 -69.107771 7.463096 -138.287337 65.732858 -137.064347 -7.468014 -22.868766 6.581472 -0.043999 -0.785094 -0.004450 0.825813 -55.716631 -3.125962 175.982000 60.677186 176.148090 -1.992085 -39.659488 2.218542 0.038200 0.120796 0.023779
-79.475419 43.686424 18.226507 177.393294 -23.643348 -0.508789 0.420298 17.057525 2.218084 -0.004627 1.825266 0.286334 -0.003982 2.995937 0.475160 0.242950 15.098287 2.410299 -0.005505 17.982512 -4.040506 0.892275 -6.746312 -4.265666 7.590848 -1.895366 -6.369342 1.871713 -11.444472 -6.040098 -139.335070 -62.620495 167.667318 -4.213930 9.089500 -33.756675 -14.073674 -3.988187 -0.985136 -0.215042 -10.899622 5.207464 145.145195 -65.004976 -176.335110 11.221790 7.234424 15.157445 -1.355474 -69.026104 7.481359 -138.222544 65.727713 -137.001954 -7.459792 -22.824374 6.573679 -0.035819 -0.792315 0.000271 0.827028 -55.631287 -3.100656 175.985102 60.675173 176.152226 -1.997327 -39.662778 2.222782 0.033980 0.119782 0.025401
-79.477766 43.685746 18.231857 177.372305 -23.697382 -0.511319 0.436261 16.994665 2.223391 -0.003665 1.856005 0.287607 -0.005759 3.011962 0.475496 0.240641 15.117781 2.410677 -0.012420 17.987673 -4.027381 0.880675 -6.742442 -4.250281 7.589270 -1.906057 -6.352116 1.859904 -11.424404 -6.050278 -139.290211 -62.652795 167.615928 -4.194706 9.128820 -33.664329 -14.076043 -3.978622 -0.996489 -0.220388 -10.884974 5.212904 145.123655 -65.000004 -176.346443 11.227484 7.252933 15.116713 -1.362667 -68.973706 7.487061 -138.215146 65.745947 -136.982674 -7.449473 -22.799405 6.549443 -0.033214 -0.783594 0.000656 0.839800 -55.579250 -3.074380 175.996525 60.675172 176.165031 -2.009036 -39.663781 2.228841 0.032347 0.122111 0.028759
